<svg width="93" height="24" viewBox="0 0 93 24" fill="none" xmlns="http://www.w3.org/2000/svg">
<g clip-path="url(#clip0_534_2)">
<path d="M17.0984 8.16504H7.90162C3.53781 8.16504 0 11.7088 0 16.0818C0 20.4548 3.53781 24.0001 7.90162 24.0001H17.0984C21.4622 24.0001 25 20.4548 25 16.0818C25 11.7088 21.4622 8.16504 17.0984 8.16504ZM16.9261 23.0922C13.0637 23.0922 9.93201 19.9539 9.93201 16.0833C9.93201 12.2128 13.0637 9.07448 16.9261 9.07448C20.7885 9.07448 23.9202 12.2128 23.9202 16.0833C23.9202 19.9539 20.7885 23.0922 16.9261 23.0922Z" fill="#34C759"/>
<path d="M16.0047 4.68437C16.0047 5.68167 16.2631 6.61732 16.7169 7.42811C14.5112 7.04738 12.833 5.1206 12.833 2.80075C12.833 2.50942 12.8592 2.22426 12.9115 1.9468C13.3421 1.81578 13.8005 1.74487 14.2743 1.74487C15.0895 1.74487 15.8571 1.95451 16.5246 2.32137C16.1908 3.03967 16.0047 3.83967 16.0047 4.68437Z" fill="#34C759"/>
<path d="M22.2067 2.80077C22.2067 4.92023 20.8069 6.71137 18.8827 7.29557C18.552 7.39576 18.2074 7.46204 17.849 7.48516H17.8475C17.2676 6.70366 16.9246 5.7341 16.9246 4.68439C16.9246 4.03391 17.0568 3.41426 17.2953 2.8501C17.9674 1.26243 19.4856 0.123314 21.2838 0C21.8636 0.781503 22.2067 1.75106 22.2067 2.80077Z" fill="#34C759"/>
</g>
<mask id="path-4-outside-1_534_2" maskUnits="userSpaceOnUse" x="41" y="10" width="52" height="15" fill="black">
<rect fill="white" x="41" y="10" width="52" height="15"/>
<path d="M45.87 23V12.992H42.468V11.228H51.36V12.992H47.958V23H45.87ZM56.137 23.216C55.321 23.216 54.583 23.036 53.923 22.676C53.263 22.304 52.741 21.776 52.357 21.092C51.973 20.396 51.781 19.562 51.781 18.59C51.781 17.63 51.973 16.802 52.357 16.106C52.753 15.41 53.263 14.876 53.887 14.504C54.511 14.132 55.165 13.946 55.849 13.946C56.653 13.946 57.325 14.126 57.865 14.486C58.405 14.834 58.813 15.326 59.089 15.962C59.365 16.586 59.503 17.312 59.503 18.14C59.503 18.572 59.473 18.908 59.413 19.148H53.797C53.893 19.928 54.175 20.534 54.643 20.966C55.111 21.398 55.699 21.614 56.407 21.614C56.791 21.614 57.145 21.56 57.469 21.452C57.805 21.332 58.135 21.17 58.459 20.966L59.161 22.262C58.741 22.538 58.273 22.766 57.757 22.946C57.241 23.126 56.701 23.216 56.137 23.216ZM53.779 17.744H57.703C57.703 17.06 57.553 16.526 57.253 16.142C56.953 15.746 56.503 15.548 55.903 15.548C55.387 15.548 54.925 15.74 54.517 16.124C54.121 16.496 53.875 17.036 53.779 17.744ZM63.9111 23.216C63.1431 23.216 62.5131 22.976 62.0211 22.496C61.5411 22.016 61.3011 21.392 61.3011 20.624C61.3011 19.676 61.7151 18.944 62.5431 18.428C63.3711 17.9 64.6911 17.54 66.5031 17.348C66.4911 16.88 66.3651 16.478 66.1251 16.142C65.8971 15.794 65.4831 15.62 64.8831 15.62C64.4511 15.62 64.0251 15.704 63.6051 15.872C63.1971 16.04 62.7951 16.244 62.3991 16.484L61.6431 15.098C62.1351 14.786 62.6871 14.516 63.2991 14.288C63.9231 14.06 64.5831 13.946 65.2791 13.946C66.3831 13.946 67.2051 14.276 67.7451 14.936C68.2971 15.584 68.5731 16.526 68.5731 17.762V23H66.8631L66.7191 22.028H66.6471C66.2511 22.364 65.8251 22.646 65.3691 22.874C64.9251 23.102 64.4391 23.216 63.9111 23.216ZM64.5771 21.596C64.9371 21.596 65.2611 21.512 65.5491 21.344C65.8491 21.164 66.1671 20.924 66.5031 20.624V18.644C65.3031 18.8 64.4691 19.034 64.0011 19.346C63.5331 19.646 63.2991 20.018 63.2991 20.462C63.2991 20.858 63.4191 21.146 63.6591 21.326C63.8991 21.506 64.2051 21.596 64.5771 21.596ZM76.3023 23.216C75.2823 23.216 74.3823 22.97 73.6023 22.478C72.8223 21.974 72.2103 21.266 71.7663 20.354C71.3343 19.43 71.1183 18.332 71.1183 17.06C71.1183 15.788 71.3343 14.702 71.7663 13.802C72.2103 12.902 72.8223 12.212 73.6023 11.732C74.3823 11.252 75.2823 11.012 76.3023 11.012C77.3343 11.012 78.2403 11.252 79.0203 11.732C79.8003 12.212 80.4063 12.902 80.8383 13.802C81.2823 14.702 81.5043 15.788 81.5043 17.06C81.5043 18.332 81.2823 19.43 80.8383 20.354C80.4063 21.266 79.8003 21.974 79.0203 22.478C78.2403 22.97 77.3343 23.216 76.3023 23.216ZM76.3023 21.398C77.2263 21.398 77.9643 21.008 78.5163 20.228C79.0683 19.436 79.3443 18.38 79.3443 17.06C79.3443 15.74 79.0683 14.708 78.5163 13.964C77.9643 13.208 77.2263 12.83 76.3023 12.83C75.3783 12.83 74.6403 13.208 74.0883 13.964C73.5363 14.708 73.2603 15.74 73.2603 17.06C73.2603 18.38 73.5363 19.436 74.0883 20.228C74.6403 21.008 75.3783 21.398 76.3023 21.398ZM84.1792 23V14.162H85.8892L86.0332 15.35H86.1052C86.5012 14.966 86.9332 14.636 87.4012 14.36C87.8692 14.084 88.4032 13.946 89.0032 13.946C89.9512 13.946 90.6412 14.252 91.0732 14.864C91.5052 15.476 91.7212 16.34 91.7212 17.456V23H89.6512V17.726C89.6512 16.994 89.5432 16.478 89.3272 16.178C89.1112 15.878 88.7572 15.728 88.2652 15.728C87.8812 15.728 87.5392 15.824 87.2392 16.016C86.9512 16.196 86.6212 16.466 86.2492 16.826V23H84.1792Z"/>
</mask>
<path d="M45.87 23V12.992H42.468V11.228H51.36V12.992H47.958V23H45.87ZM56.137 23.216C55.321 23.216 54.583 23.036 53.923 22.676C53.263 22.304 52.741 21.776 52.357 21.092C51.973 20.396 51.781 19.562 51.781 18.59C51.781 17.63 51.973 16.802 52.357 16.106C52.753 15.41 53.263 14.876 53.887 14.504C54.511 14.132 55.165 13.946 55.849 13.946C56.653 13.946 57.325 14.126 57.865 14.486C58.405 14.834 58.813 15.326 59.089 15.962C59.365 16.586 59.503 17.312 59.503 18.14C59.503 18.572 59.473 18.908 59.413 19.148H53.797C53.893 19.928 54.175 20.534 54.643 20.966C55.111 21.398 55.699 21.614 56.407 21.614C56.791 21.614 57.145 21.56 57.469 21.452C57.805 21.332 58.135 21.17 58.459 20.966L59.161 22.262C58.741 22.538 58.273 22.766 57.757 22.946C57.241 23.126 56.701 23.216 56.137 23.216ZM53.779 17.744H57.703C57.703 17.06 57.553 16.526 57.253 16.142C56.953 15.746 56.503 15.548 55.903 15.548C55.387 15.548 54.925 15.74 54.517 16.124C54.121 16.496 53.875 17.036 53.779 17.744ZM63.9111 23.216C63.1431 23.216 62.5131 22.976 62.0211 22.496C61.5411 22.016 61.3011 21.392 61.3011 20.624C61.3011 19.676 61.7151 18.944 62.5431 18.428C63.3711 17.9 64.6911 17.54 66.5031 17.348C66.4911 16.88 66.3651 16.478 66.1251 16.142C65.8971 15.794 65.4831 15.62 64.8831 15.62C64.4511 15.62 64.0251 15.704 63.6051 15.872C63.1971 16.04 62.7951 16.244 62.3991 16.484L61.6431 15.098C62.1351 14.786 62.6871 14.516 63.2991 14.288C63.9231 14.06 64.5831 13.946 65.2791 13.946C66.3831 13.946 67.2051 14.276 67.7451 14.936C68.2971 15.584 68.5731 16.526 68.5731 17.762V23H66.8631L66.7191 22.028H66.6471C66.2511 22.364 65.8251 22.646 65.3691 22.874C64.9251 23.102 64.4391 23.216 63.9111 23.216ZM64.5771 21.596C64.9371 21.596 65.2611 21.512 65.5491 21.344C65.8491 21.164 66.1671 20.924 66.5031 20.624V18.644C65.3031 18.8 64.4691 19.034 64.0011 19.346C63.5331 19.646 63.2991 20.018 63.2991 20.462C63.2991 20.858 63.4191 21.146 63.6591 21.326C63.8991 21.506 64.2051 21.596 64.5771 21.596ZM76.3023 23.216C75.2823 23.216 74.3823 22.97 73.6023 22.478C72.8223 21.974 72.2103 21.266 71.7663 20.354C71.3343 19.43 71.1183 18.332 71.1183 17.06C71.1183 15.788 71.3343 14.702 71.7663 13.802C72.2103 12.902 72.8223 12.212 73.6023 11.732C74.3823 11.252 75.2823 11.012 76.3023 11.012C77.3343 11.012 78.2403 11.252 79.0203 11.732C79.8003 12.212 80.4063 12.902 80.8383 13.802C81.2823 14.702 81.5043 15.788 81.5043 17.06C81.5043 18.332 81.2823 19.43 80.8383 20.354C80.4063 21.266 79.8003 21.974 79.0203 22.478C78.2403 22.97 77.3343 23.216 76.3023 23.216ZM76.3023 21.398C77.2263 21.398 77.9643 21.008 78.5163 20.228C79.0683 19.436 79.3443 18.38 79.3443 17.06C79.3443 15.74 79.0683 14.708 78.5163 13.964C77.9643 13.208 77.2263 12.83 76.3023 12.83C75.3783 12.83 74.6403 13.208 74.0883 13.964C73.5363 14.708 73.2603 15.74 73.2603 17.06C73.2603 18.38 73.5363 19.436 74.0883 20.228C74.6403 21.008 75.3783 21.398 76.3023 21.398ZM84.1792 23V14.162H85.8892L86.0332 15.35H86.1052C86.5012 14.966 86.9332 14.636 87.4012 14.36C87.8692 14.084 88.4032 13.946 89.0032 13.946C89.9512 13.946 90.6412 14.252 91.0732 14.864C91.5052 15.476 91.7212 16.34 91.7212 17.456V23H89.6512V17.726C89.6512 16.994 89.5432 16.478 89.3272 16.178C89.1112 15.878 88.7572 15.728 88.2652 15.728C87.8812 15.728 87.5392 15.824 87.2392 16.016C86.9512 16.196 86.6212 16.466 86.2492 16.826V23H84.1792Z" fill="#34C759"/>
<path d="M45.87 23H44.87V24H45.87V23ZM45.87 12.992H46.87V11.992H45.87V12.992ZM42.468 12.992H41.468V13.992H42.468V12.992ZM42.468 11.228V10.228H41.468V11.228H42.468ZM51.36 11.228H52.36V10.228H51.36V11.228ZM51.36 12.992V13.992H52.36V12.992H51.36ZM47.958 12.992V11.992H46.958V12.992H47.958ZM47.958 23V24H48.958V23H47.958ZM46.87 23V12.992H44.87V23H46.87ZM45.87 11.992H42.468V13.992H45.87V11.992ZM43.468 12.992V11.228H41.468V12.992H43.468ZM42.468 12.228H51.36V10.228H42.468V12.228ZM50.36 11.228V12.992H52.36V11.228H50.36ZM51.36 11.992H47.958V13.992H51.36V11.992ZM46.958 12.992V23H48.958V12.992H46.958ZM47.958 22H45.87V24H47.958V22ZM53.923 22.676L53.4319 23.5472L53.4441 23.5539L53.923 22.676ZM52.357 21.092L51.4814 21.5751L51.485 21.5815L52.357 21.092ZM52.357 16.106L51.4877 15.6114L51.4814 15.6229L52.357 16.106ZM53.887 14.504L53.3749 13.6451L53.3749 13.6451L53.887 14.504ZM57.865 14.486L57.3103 15.318L57.3167 15.3224L57.3233 15.3266L57.865 14.486ZM59.089 15.962L58.1716 16.3601L58.1744 16.3665L59.089 15.962ZM59.413 19.148V20.148H60.1937L60.3831 19.3905L59.413 19.148ZM53.797 19.148V18.148H52.6663L52.8045 19.2702L53.797 19.148ZM54.643 20.966L53.9647 21.7008V21.7008L54.643 20.966ZM57.469 21.452L57.7852 22.4007L57.7953 22.3973L57.8053 22.3937L57.469 21.452ZM58.459 20.966L59.3383 20.4897L58.8297 19.5509L57.9262 20.1198L58.459 20.966ZM59.161 22.262L59.7101 23.0977L60.4777 22.5933L60.0403 21.7857L59.161 22.262ZM57.757 22.946L58.0863 23.8902V23.8902L57.757 22.946ZM53.779 17.744L52.788 17.6096L52.6342 18.744H53.779V17.744ZM57.703 17.744V18.744H58.703V17.744H57.703ZM57.253 16.142L56.4559 16.7459L56.4604 16.7518L56.4649 16.7576L57.253 16.142ZM54.517 16.124L55.2016 16.8528L55.2023 16.8522L54.517 16.124ZM56.137 22.216C55.4736 22.216 54.9026 22.0712 54.4018 21.7981L53.4441 23.5539C54.2634 24.0008 55.1683 24.216 56.137 24.216V22.216ZM54.414 21.8048C53.9193 21.526 53.5266 21.1327 53.229 20.6025L51.485 21.5815C51.9553 22.4193 52.6066 23.082 53.432 23.5472L54.414 21.8048ZM53.2325 20.6089C52.9465 20.0904 52.781 19.4304 52.781 18.59H50.781C50.781 19.6936 50.9995 20.7016 51.4814 21.5751L53.2325 20.6089ZM52.781 18.59C52.781 17.764 52.9455 17.1093 53.2325 16.5891L51.4814 15.6229C51.0004 16.4947 50.781 17.496 50.781 18.59H52.781ZM53.2261 16.6005C53.5456 16.0391 53.9384 15.6376 54.399 15.3629L53.3749 13.6451C52.5875 14.1144 51.9604 14.7809 51.4878 15.6115L53.2261 16.6005ZM54.399 15.3629C54.8782 15.0773 55.3565 14.946 55.849 14.946V12.946C54.9734 12.946 54.1438 13.1867 53.3749 13.6451L54.399 15.3629ZM55.849 14.946C56.5029 14.946 56.97 15.0912 57.3103 15.318L58.4197 13.6539C57.68 13.1608 56.803 12.946 55.849 12.946V14.946ZM57.3233 15.3266C57.6838 15.5589 57.9678 15.8904 58.1716 16.3601L60.0063 15.5639C59.6581 14.7616 59.1261 14.1091 58.4067 13.6454L57.3233 15.3266ZM58.1744 16.3665C58.3834 16.8389 58.503 17.4222 58.503 18.14H60.503C60.503 17.2018 60.3465 16.3331 60.0035 15.5575L58.1744 16.3665ZM58.503 18.14C58.503 18.5413 58.4736 18.7824 58.4428 18.9055L60.3831 19.3905C60.4724 19.0336 60.503 18.6027 60.503 18.14H58.503ZM59.413 18.148H53.797V20.148H59.413V18.148ZM52.8045 19.2702C52.9224 20.2282 53.2848 21.0732 53.9647 21.7008L55.3212 20.2312C55.0652 19.9948 54.8636 19.6278 54.7895 19.0258L52.8045 19.2702ZM53.9647 21.7008C54.6386 22.3229 55.4779 22.614 56.407 22.614V20.614C55.92 20.614 55.5834 20.4731 55.3212 20.2312L53.9647 21.7008ZM56.407 22.614C56.8852 22.614 57.3474 22.5466 57.7852 22.4007L57.1527 20.5033C56.9425 20.5734 56.6967 20.614 56.407 20.614V22.614ZM57.8053 22.3937C58.2149 22.2475 58.6105 22.0523 58.9918 21.8122L57.9262 20.1198C57.6595 20.2877 57.395 20.4165 57.1326 20.5103L57.8053 22.3937ZM57.5797 21.4423L58.2817 22.7383L60.0403 21.7857L59.3383 20.4897L57.5797 21.4423ZM58.6118 21.4263C58.266 21.6535 57.8729 21.8465 57.4276 22.0018L58.0863 23.8902C58.6731 23.6855 59.2159 23.4225 59.7101 23.0977L58.6118 21.4263ZM57.4276 22.0018C57.0209 22.1437 56.5925 22.216 56.137 22.216V24.216C56.8095 24.216 57.4611 24.1083 58.0863 23.8902L57.4276 22.0018ZM53.779 18.744H57.703V16.744H53.779V18.744ZM58.703 17.744C58.703 16.9251 58.5243 16.1449 58.041 15.5264L56.4649 16.7576C56.5817 16.9071 56.703 17.1949 56.703 17.744H58.703ZM58.0501 15.5381C57.521 14.8398 56.7432 14.548 55.903 14.548V16.548C56.2627 16.548 56.3849 16.6522 56.4559 16.7459L58.0501 15.5381ZM55.903 14.548C55.1093 14.548 54.4077 14.8536 53.8316 15.3958L55.2023 16.8522C55.4422 16.6264 55.6646 16.548 55.903 16.548V14.548ZM53.8323 15.3952C53.2227 15.9678 52.9051 16.7464 52.788 17.6096L54.7699 17.8784C54.8449 17.3256 55.0193 17.0242 55.2016 16.8528L53.8323 15.3952ZM62.0211 22.496L61.3139 23.2032L61.3228 23.2118L62.0211 22.496ZM62.5431 18.428L63.072 19.2767L63.0807 19.2712L62.5431 18.428ZM66.5031 17.348L66.6084 18.3424L67.5264 18.2452L67.5028 17.3224L66.5031 17.348ZM66.1251 16.142L65.2886 16.69L65.2996 16.7069L65.3113 16.7232L66.1251 16.142ZM63.6051 15.872L63.2337 14.9435L63.2243 14.9473L63.6051 15.872ZM62.3991 16.484L61.5212 16.9629L62.0223 17.8816L62.9174 17.3392L62.3991 16.484ZM61.6431 15.098L61.1075 14.2535L60.3168 14.7549L60.7652 15.5769L61.6431 15.098ZM63.2991 14.288L62.9559 13.3487L62.95 13.3509L63.2991 14.288ZM67.7451 14.936L66.9711 15.5692L66.9774 15.5769L66.9838 15.5845L67.7451 14.936ZM68.5731 23V24H69.5731V23H68.5731ZM66.8631 23L65.8739 23.1465L66.0003 24H66.8631V23ZM66.7191 22.028L67.7083 21.8815L67.5818 21.028H66.7191V22.028ZM66.6471 22.028V21.028H66.28L66.0001 21.2655L66.6471 22.028ZM65.3691 22.874L64.9218 21.9795L64.9123 21.9844L65.3691 22.874ZM65.5491 21.344L66.053 22.2078L66.0636 22.2015L65.5491 21.344ZM66.5031 20.624L67.1691 21.3699L67.5031 21.0717V20.624H66.5031ZM66.5031 18.644H67.5031V17.5056L66.3742 17.6523L66.5031 18.644ZM64.0011 19.346L64.5407 20.1879L64.5483 20.183L64.5558 20.1781L64.0011 19.346ZM63.6591 21.326L63.0591 22.126V22.126L63.6591 21.326ZM63.9111 22.216C63.3707 22.216 63.002 22.056 62.7194 21.7802L61.3228 23.2118C62.0241 23.896 62.9155 24.216 63.9111 24.216V22.216ZM62.7282 21.7889C62.461 21.5217 62.3011 21.1648 62.3011 20.624H60.3011C60.3011 21.6192 60.6212 22.5103 61.314 23.2031L62.7282 21.7889ZM62.3011 20.624C62.3011 20.0333 62.5266 19.6166 63.072 19.2767L62.0142 17.5793C60.9036 18.2714 60.3011 19.3187 60.3011 20.624H62.3011ZM63.0807 19.2712C63.7092 18.8704 64.8402 18.5298 66.6084 18.3424L66.3977 16.3536C64.5419 16.5502 63.0329 16.9296 62.0054 17.5848L63.0807 19.2712ZM67.5028 17.3224C67.4863 16.6824 67.31 16.0804 66.9388 15.5608L65.3113 16.7232C65.4202 16.8756 65.4958 17.0776 65.5034 17.3736L67.5028 17.3224ZM66.9615 15.594C66.4752 14.8516 65.6594 14.62 64.8831 14.62V16.62C65.0923 16.62 65.2055 16.6511 65.2561 16.6724C65.2794 16.6822 65.2879 16.6891 65.2883 16.6895C65.2889 16.6899 65.2886 16.6898 65.2881 16.6892C65.2876 16.6887 65.2878 16.6887 65.2886 16.69L66.9615 15.594ZM64.8831 14.62C64.3179 14.62 63.7662 14.7305 63.2337 14.9435L63.9765 16.8005C64.284 16.6775 64.5842 16.62 64.8831 16.62V14.62ZM63.2243 14.9473C62.7665 15.1358 62.3186 15.3634 61.8808 15.6288L62.9174 17.3392C63.2715 17.1246 63.6277 16.9442 63.9858 16.7967L63.2243 14.9473ZM63.277 16.0051L62.521 14.6191L60.7652 15.5769L61.5212 16.9629L63.277 16.0051ZM62.1786 15.9425C62.6053 15.6719 63.0937 15.4317 63.6482 15.2251L62.95 13.3509C62.2805 13.6003 61.6649 13.9001 61.1075 14.2535L62.1786 15.9425ZM63.6423 15.2273C64.1511 15.0413 64.6945 14.946 65.2791 14.946V12.946C64.4716 12.946 63.695 13.0787 62.9559 13.3487L63.6423 15.2273ZM65.2791 14.946C66.1785 14.946 66.6742 15.2063 66.9711 15.5692L68.519 14.3028C67.736 13.3457 66.5877 12.946 65.2791 12.946V14.946ZM66.9838 15.5845C67.3251 15.9851 67.5731 16.6586 67.5731 17.762H69.5731C69.5731 16.3934 69.2691 15.1829 68.5063 14.2875L66.9838 15.5845ZM67.5731 17.762V23H69.5731V17.762H67.5731ZM68.5731 22H66.8631V24H68.5731V22ZM67.8523 22.8535L67.7083 21.8815L65.7299 22.1745L65.8739 23.1465L67.8523 22.8535ZM66.7191 21.028H66.6471V23.028H66.7191V21.028ZM66.0001 21.2655C65.664 21.5507 65.3049 21.7881 64.9219 21.9796L65.8163 23.7684C66.3453 23.5039 66.8381 23.1773 67.2941 22.7905L66.0001 21.2655ZM64.9123 21.9844C64.6178 22.1357 64.2897 22.216 63.9111 22.216V24.216C64.5885 24.216 65.2324 24.0683 65.8259 23.7636L64.9123 21.9844ZM64.5771 22.596C65.0995 22.596 65.5999 22.4721 66.0529 22.2078L65.0452 20.4802C64.9223 20.5519 64.7746 20.596 64.5771 20.596V22.596ZM66.0636 22.2015C66.4303 21.9815 66.7988 21.7005 67.1691 21.3699L65.8371 19.8781C65.5353 20.1475 65.2679 20.3465 65.0346 20.4865L66.0636 22.2015ZM67.5031 20.624V18.644H65.5031V20.624H67.5031ZM66.3742 17.6523C65.1583 17.8104 64.1213 18.064 63.4464 18.5139L64.5558 20.1781C64.8168 20.004 65.4478 19.7896 66.632 19.6357L66.3742 17.6523ZM63.4614 18.5041C62.7891 18.9351 62.2991 19.5896 62.2991 20.462H64.2991C64.2991 20.4263 64.3054 20.4072 64.321 20.3825C64.3419 20.3493 64.3987 20.2789 64.5407 20.1879L63.4614 18.5041ZM62.2991 20.462C62.2991 21.0631 62.4909 21.6998 63.0591 22.126L64.2591 20.526C64.2704 20.5345 64.283 20.5465 64.2942 20.561C64.3052 20.5754 64.3106 20.5866 64.3122 20.5904C64.3146 20.5963 64.2991 20.5621 64.2991 20.462H62.2991ZM63.0591 22.126C63.5102 22.4643 64.0416 22.596 64.5771 22.596V20.596C64.3686 20.596 64.288 20.5477 64.2591 20.526L63.0591 22.126ZM73.6023 22.478L73.0596 23.318L73.0688 23.3238L73.6023 22.478ZM71.7663 20.354L70.8604 20.7775L70.8638 20.7847L70.8672 20.7917L71.7663 20.354ZM71.7663 13.802L70.8695 13.3595L70.8648 13.3693L71.7663 13.802ZM73.6023 11.732L73.0782 10.8803L73.0782 10.8803L73.6023 11.732ZM79.0203 11.732L79.5444 10.8803V10.8803L79.0203 11.732ZM80.8383 13.802L79.9368 14.2348L79.9415 14.2444L80.8383 13.802ZM80.8383 20.354L79.937 19.9209L79.9346 19.9259L80.8383 20.354ZM79.0203 22.478L79.5539 23.3238L79.563 23.3179L79.0203 22.478ZM78.5163 20.228L79.3326 20.8057L79.3367 20.7998L78.5163 20.228ZM78.5163 13.964L77.7087 14.5537L77.7132 14.5598L78.5163 13.964ZM74.0883 13.964L74.8914 14.5599L74.896 14.5537L74.0883 13.964ZM74.0883 20.228L73.2679 20.7998L73.2721 20.8057L74.0883 20.228ZM76.3023 22.216C75.4505 22.216 74.7395 22.013 74.1358 21.6322L73.0688 23.3238C74.0252 23.927 75.1142 24.216 76.3023 24.216V22.216ZM74.145 21.6381C73.5323 21.2422 73.0372 20.6798 72.6654 19.9163L70.8672 20.7917C71.3835 21.8522 72.1124 22.7058 73.0596 23.3179L74.145 21.6381ZM72.6722 19.9305C72.3156 19.1676 72.1183 18.2208 72.1183 17.06H70.1183C70.1183 18.4432 70.3531 19.6924 70.8604 20.7775L72.6722 19.9305ZM72.1183 17.06C72.1183 15.898 72.3159 14.9679 72.6679 14.2347L70.8648 13.3693C70.3527 14.4361 70.1183 15.678 70.1183 17.06H72.1183ZM72.6631 14.2444C73.0321 13.4964 73.5219 12.9557 74.1264 12.5837L73.0782 10.8803C72.1228 11.4683 71.3885 12.3076 70.8695 13.3596L72.6631 14.2444ZM74.1264 12.5837C74.7313 12.2114 75.4457 12.012 76.3023 12.012V10.012C75.1189 10.012 74.0333 10.2926 73.0782 10.8803L74.1264 12.5837ZM76.3023 12.012C77.1733 12.012 77.8932 12.2125 78.4962 12.5837L79.5444 10.8803C78.5875 10.2915 77.4953 10.012 76.3023 10.012V12.012ZM78.4962 12.5837C79.0982 12.9541 79.58 13.4915 79.9368 14.2347L81.7399 13.3693C81.2326 12.3125 80.5025 11.4699 79.5444 10.8803L78.4962 12.5837ZM79.9415 14.2444C80.302 14.975 80.5043 15.9016 80.5043 17.06H82.5043C82.5043 15.6744 82.2627 14.429 81.7351 13.3596L79.9415 14.2444ZM80.5043 17.06C80.5043 18.2173 80.3023 19.1606 79.937 19.9209L81.7397 20.7871C82.2623 19.6994 82.5043 18.4467 82.5043 17.06H80.5043ZM79.9346 19.9259C79.5751 20.6848 79.0878 21.2438 78.4776 21.6381L79.563 23.3179C80.5128 22.7042 81.2376 21.8472 81.7421 20.7821L79.9346 19.9259ZM78.4868 21.6322C77.8851 22.0118 77.1687 22.216 76.3023 22.216V24.216C77.5 24.216 78.5956 23.9282 79.5538 23.3238L78.4868 21.6322ZM76.3023 22.398C77.5638 22.398 78.6007 21.8398 79.3326 20.8057L77.7001 19.6503C77.3279 20.1762 76.8889 20.398 76.3023 20.398V22.398ZM79.3367 20.7998C80.0415 19.7886 80.3443 18.5112 80.3443 17.06H78.3443C78.3443 18.2488 78.0951 19.0834 77.6959 19.6562L79.3367 20.7998ZM80.3443 17.06C80.3443 15.6137 80.0434 14.344 79.3194 13.3682L77.7132 14.5598C78.0932 15.072 78.3443 15.8663 78.3443 17.06H80.3443ZM79.324 13.3743C78.5866 12.3644 77.5505 11.83 76.3023 11.83V13.83C76.9021 13.83 77.3421 14.0516 77.7087 14.5537L79.324 13.3743ZM76.3023 11.83C75.0541 11.83 74.0181 12.3644 73.2807 13.3743L74.896 14.5537C75.2626 14.0516 75.7025 13.83 76.3023 13.83V11.83ZM73.2852 13.3682C72.5612 14.344 72.2603 15.6137 72.2603 17.06H74.2603C74.2603 15.8663 74.5114 15.072 74.8914 14.5598L73.2852 13.3682ZM72.2603 17.06C72.2603 18.5112 72.5631 19.7886 73.2679 20.7998L74.9087 19.6562C74.5095 19.0834 74.2603 18.2488 74.2603 17.06H72.2603ZM73.2721 20.8057C74.0039 21.8398 75.0409 22.398 76.3023 22.398V20.398C75.7158 20.398 75.2767 20.1762 74.9046 19.6503L73.2721 20.8057ZM84.1792 23H83.1792V24H84.1792V23ZM84.1792 14.162V13.162H83.1792V14.162H84.1792ZM85.8892 14.162L86.882 14.0417L86.7753 13.162H85.8892V14.162ZM86.0332 15.35L85.0405 15.4703L85.1471 16.35H86.0332V15.35ZM86.1052 15.35V16.35H86.5105L86.8014 16.0679L86.1052 15.35ZM87.4012 14.36L86.8932 13.4986L87.4012 14.36ZM91.0732 14.864L91.8902 14.2873V14.2873L91.0732 14.864ZM91.7212 23V24H92.7212V23H91.7212ZM89.6512 23H88.6512V24H89.6512V23ZM89.3272 16.178L90.1388 15.5937V15.5937L89.3272 16.178ZM87.2392 16.016L87.7693 16.864L87.7783 16.8583L87.2392 16.016ZM86.2492 16.826L85.5538 16.1074L85.2492 16.4022V16.826H86.2492ZM86.2492 23V24H87.2492V23H86.2492ZM85.1792 23V14.162H83.1792V23H85.1792ZM84.1792 15.162H85.8892V13.162H84.1792V15.162ZM84.8965 14.2823L85.0405 15.4703L87.026 15.2297L86.882 14.0417L84.8965 14.2823ZM86.0332 16.35H86.1052V14.35H86.0332V16.35ZM86.8014 16.0679C87.1414 15.7382 87.5104 15.4565 87.9092 15.2214L86.8932 13.4986C86.356 13.8155 85.861 14.1938 85.4091 14.6321L86.8014 16.0679ZM87.9092 15.2214C88.2076 15.0454 88.5627 14.946 89.0032 14.946V12.946C88.2437 12.946 87.5309 13.1226 86.8932 13.4986L87.9092 15.2214ZM89.0032 14.946C89.7227 14.946 90.0611 15.1641 90.2563 15.4407L91.8902 14.2873C91.2214 13.3399 90.1798 12.946 89.0032 12.946V14.946ZM90.2563 15.4407C90.5238 15.8198 90.7212 16.4508 90.7212 17.456H92.7212C92.7212 16.2292 92.4866 15.1322 91.8902 14.2873L90.2563 15.4407ZM90.7212 17.456V23H92.7212V17.456H90.7212ZM91.7212 22H89.6512V24H91.7212V22ZM90.6512 23V17.726H88.6512V23H90.6512ZM90.6512 17.726C90.6512 16.9563 90.5495 16.1642 90.1388 15.5937L88.5157 16.7623C88.515 16.7614 88.5548 16.8197 88.5914 16.9949C88.6271 17.1652 88.6512 17.4044 88.6512 17.726H90.6512ZM90.1388 15.5937C89.6759 14.9508 88.9625 14.728 88.2652 14.728V16.728C88.4132 16.728 88.4853 16.751 88.5096 16.7613C88.5207 16.766 88.5226 16.7682 88.5197 16.766C88.5167 16.7636 88.515 16.7614 88.5157 16.7623L90.1388 15.5937ZM88.2652 14.728C87.7057 14.728 87.1737 14.8707 86.7002 15.1737L87.7783 16.8583C87.9047 16.7773 88.0567 16.728 88.2652 16.728V14.728ZM86.7092 15.168C86.3394 15.3992 85.9529 15.7211 85.5538 16.1074L86.9447 17.5446C87.2895 17.2109 87.5631 16.9928 87.7692 16.864L86.7092 15.168ZM85.2492 16.826V23H87.2492V16.826H85.2492ZM86.2492 22H84.1792V24H86.2492V22Z" fill="black" mask="url(#path-4-outside-1_534_2)"/>
<defs>
<clipPath id="clip0_534_2">
<rect width="25" height="24" fill="white"/>
</clipPath>
</defs>
</svg>
