<svg width="210" height="24" viewBox="0 0 210 24" fill="none" xmlns="http://www.w3.org/2000/svg">
<mask id="path-1-outside-1_0_1" maskUnits="userSpaceOnUse" x="33" y="9.76599" width="177" height="13" fill="black">
<rect fill="white" x="33" y="9.76599" width="177" height="13"/>
<path d="M34 11.004V21H36.198V16.688H40.244V21H42.442V11.004H40.244V14.84H36.198V11.004H34Z"/>
<path d="M46.477 11.004V21H54.065V19.152H48.675V16.702H53.519V14.994H48.675V12.852H53.953V11.004H46.477Z"/>
<path d="M60.1751 17.136L61.4771 13.468H61.5051L62.7651 17.136H60.1751ZM60.3851 11.004L56.6051 21H58.8171L59.6011 18.774H63.3391L64.0951 21H66.3771L62.6391 11.004H60.3851Z"/>
<path d="M69.3391 11.004V21H76.4091V19.152H71.5371V11.004H69.3391Z"/>
<path d="M80.6647 12.852V21H82.8627V12.852H85.8587V11.004H77.6687V12.852H80.6647Z"/>
<path d="M89.1113 11.004V21H91.3093V16.688H95.3553V21H97.5533V11.004H95.3553V14.84H91.3093V11.004H89.1113Z"/>
<path d="M104.178 17.108V21H106.376V17.164L110.086 11.004H107.636L105.312 14.952L102.974 11.004H100.51L104.178 17.108Z"/>
<path d="M120.521 17.682H118.393C118.383 18.298 118.495 18.83 118.729 19.278C118.962 19.726 119.275 20.0947 119.667 20.384C120.068 20.6733 120.525 20.8833 121.039 21.014C121.561 21.154 122.098 21.224 122.649 21.224C123.33 21.224 123.927 21.1447 124.441 20.986C124.963 20.8273 125.397 20.608 125.743 20.328C126.097 20.0387 126.363 19.698 126.541 19.306C126.718 18.914 126.807 18.4893 126.807 18.032C126.807 17.472 126.685 17.0147 126.443 16.66C126.209 16.296 125.929 16.0067 125.603 15.792C125.276 15.5773 124.945 15.4233 124.609 15.33C124.282 15.2273 124.025 15.1573 123.839 15.12C123.213 14.9613 122.705 14.8307 122.313 14.728C121.93 14.6253 121.627 14.5227 121.403 14.42C121.188 14.3173 121.043 14.2053 120.969 14.084C120.894 13.9627 120.857 13.804 120.857 13.608C120.857 13.3933 120.903 13.216 120.997 13.076C121.09 12.936 121.207 12.8193 121.347 12.726C121.496 12.6327 121.659 12.5673 121.837 12.53C122.014 12.4927 122.191 12.474 122.369 12.474C122.639 12.474 122.887 12.4973 123.111 12.544C123.344 12.5907 123.549 12.67 123.727 12.782C123.904 12.894 124.044 13.048 124.147 13.244C124.259 13.44 124.324 13.6873 124.343 13.986H126.471C126.471 13.4073 126.359 12.9173 126.135 12.516C125.92 12.1053 125.626 11.7693 125.253 11.508C124.879 11.2467 124.45 11.06 123.965 10.948C123.489 10.8267 122.989 10.766 122.467 10.766C122.019 10.766 121.571 10.8267 121.123 10.948C120.675 11.0693 120.273 11.256 119.919 11.508C119.564 11.76 119.275 12.0773 119.051 12.46C118.836 12.8333 118.729 13.2767 118.729 13.79C118.729 14.2473 118.813 14.6393 118.981 14.966C119.158 15.2833 119.387 15.5493 119.667 15.764C119.947 15.9787 120.264 16.156 120.619 16.296C120.973 16.4267 121.337 16.5387 121.711 16.632C122.075 16.7347 122.434 16.828 122.789 16.912C123.143 16.996 123.461 17.094 123.741 17.206C124.021 17.318 124.245 17.458 124.413 17.626C124.59 17.794 124.679 18.0133 124.679 18.284C124.679 18.536 124.613 18.746 124.483 18.914C124.352 19.0727 124.189 19.1987 123.993 19.292C123.797 19.3853 123.587 19.4507 123.363 19.488C123.139 19.516 122.929 19.53 122.733 19.53C122.443 19.53 122.163 19.4973 121.893 19.432C121.622 19.3573 121.384 19.25 121.179 19.11C120.983 18.9607 120.824 18.7693 120.703 18.536C120.581 18.3027 120.521 18.018 120.521 17.682Z"/>
<path d="M139.734 21L142.422 11.004H140.266L138.628 17.892H138.6L136.892 11.004H134.834L133.098 17.808H133.07L131.488 11.004H129.29L131.936 21H134.162L135.828 14.196H135.856L137.55 21H139.734Z"/>
<path d="M145.535 11.004V21H147.733V11.004H145.535Z"/>
<path d="M153.976 12.852V21H156.174V12.852H159.17V11.004H150.98V12.852H153.976Z"/>
<path d="M169.087 14.364H171.215C171.149 13.7853 170.991 13.272 170.739 12.824C170.487 12.376 170.165 12.0027 169.773 11.704C169.39 11.396 168.951 11.1627 168.457 11.004C167.971 10.8453 167.453 10.766 166.903 10.766C166.137 10.766 165.447 10.9013 164.831 11.172C164.224 11.4427 163.711 11.816 163.291 12.292C162.871 12.768 162.549 13.328 162.325 13.972C162.101 14.6067 161.989 15.2973 161.989 16.044C161.989 16.772 162.101 17.4533 162.325 18.088C162.549 18.7133 162.871 19.2593 163.291 19.726C163.711 20.1927 164.224 20.5613 164.831 20.832C165.447 21.0933 166.137 21.224 166.903 21.224C167.519 21.224 168.083 21.1307 168.597 20.944C169.11 20.7573 169.558 20.4867 169.941 20.132C170.323 19.7773 170.631 19.348 170.865 18.844C171.098 18.34 171.243 17.7753 171.299 17.15H169.171C169.087 17.822 168.853 18.3633 168.471 18.774C168.097 19.1847 167.575 19.39 166.903 19.39C166.408 19.39 165.988 19.2967 165.643 19.11C165.297 18.914 165.017 18.6573 164.803 18.34C164.588 18.0227 164.429 17.668 164.327 17.276C164.233 16.8747 164.187 16.464 164.187 16.044C164.187 15.6053 164.233 15.1807 164.327 14.77C164.429 14.3593 164.588 13.9953 164.803 13.678C165.017 13.3513 165.297 13.0947 165.643 12.908C165.988 12.712 166.408 12.614 166.903 12.614C167.173 12.614 167.43 12.6607 167.673 12.754C167.925 12.838 168.149 12.9593 168.345 13.118C168.541 13.2767 168.704 13.4633 168.835 13.678C168.965 13.8833 169.049 14.112 169.087 14.364Z"/>
<path d="M174.9 11.004V21H177.098V16.688H181.144V21H183.342V11.004H181.144V14.84H177.098V11.004H174.9Z"/>
<path d="M187.377 11.004V21H194.965V19.152H189.575V16.702H194.419V14.994H189.575V12.852H194.853V11.004H187.377Z"/>
<path d="M200.753 15.526V12.712H203.161C203.665 12.712 204.043 12.824 204.295 13.048C204.547 13.2627 204.673 13.6127 204.673 14.098C204.673 14.602 204.547 14.966 204.295 15.19C204.043 15.414 203.665 15.526 203.161 15.526H200.753ZM198.555 11.004V21H200.753V17.094H202.951C203.501 17.094 203.898 17.2153 204.141 17.458C204.383 17.7007 204.542 18.0833 204.617 18.606C204.673 19.0073 204.715 19.4273 204.743 19.866C204.771 20.3047 204.845 20.6827 204.967 21H207.165C207.062 20.86 206.983 20.692 206.927 20.496C206.88 20.2907 206.843 20.076 206.815 19.852C206.796 19.628 206.782 19.4087 206.773 19.194C206.763 18.9793 206.754 18.7927 206.745 18.634C206.726 18.382 206.689 18.13 206.633 17.878C206.586 17.626 206.507 17.3973 206.395 17.192C206.283 16.9773 206.138 16.7953 205.961 16.646C205.783 16.4873 205.559 16.3707 205.289 16.296V16.268C205.849 16.044 206.25 15.7173 206.493 15.288C206.745 14.8587 206.871 14.35 206.871 13.762C206.871 13.3793 206.801 13.0247 206.661 12.698C206.53 12.362 206.334 12.068 206.073 11.816C205.821 11.564 205.513 11.368 205.149 11.228C204.794 11.0787 204.393 11.004 203.945 11.004H198.555Z"/>
</mask>
<path d="M34 11.004V21H36.198V16.688H40.244V21H42.442V11.004H40.244V14.84H36.198V11.004H34Z" fill="#34C759"/>
<path d="M46.477 11.004V21H54.065V19.152H48.675V16.702H53.519V14.994H48.675V12.852H53.953V11.004H46.477Z" fill="#34C759"/>
<path d="M60.1751 17.136L61.4771 13.468H61.5051L62.7651 17.136H60.1751ZM60.3851 11.004L56.6051 21H58.8171L59.6011 18.774H63.3391L64.0951 21H66.3771L62.6391 11.004H60.3851Z" fill="#34C759"/>
<path d="M69.3391 11.004V21H76.4091V19.152H71.5371V11.004H69.3391Z" fill="#34C759"/>
<path d="M80.6647 12.852V21H82.8627V12.852H85.8587V11.004H77.6687V12.852H80.6647Z" fill="#34C759"/>
<path d="M89.1113 11.004V21H91.3093V16.688H95.3553V21H97.5533V11.004H95.3553V14.84H91.3093V11.004H89.1113Z" fill="#34C759"/>
<path d="M104.178 17.108V21H106.376V17.164L110.086 11.004H107.636L105.312 14.952L102.974 11.004H100.51L104.178 17.108Z" fill="#34C759"/>
<path d="M120.521 17.682H118.393C118.383 18.298 118.495 18.83 118.729 19.278C118.962 19.726 119.275 20.0947 119.667 20.384C120.068 20.6733 120.525 20.8833 121.039 21.014C121.561 21.154 122.098 21.224 122.649 21.224C123.33 21.224 123.927 21.1447 124.441 20.986C124.963 20.8273 125.397 20.608 125.743 20.328C126.097 20.0387 126.363 19.698 126.541 19.306C126.718 18.914 126.807 18.4893 126.807 18.032C126.807 17.472 126.685 17.0147 126.443 16.66C126.209 16.296 125.929 16.0067 125.603 15.792C125.276 15.5773 124.945 15.4233 124.609 15.33C124.282 15.2273 124.025 15.1573 123.839 15.12C123.213 14.9613 122.705 14.8307 122.313 14.728C121.93 14.6253 121.627 14.5227 121.403 14.42C121.188 14.3173 121.043 14.2053 120.969 14.084C120.894 13.9627 120.857 13.804 120.857 13.608C120.857 13.3933 120.903 13.216 120.997 13.076C121.09 12.936 121.207 12.8193 121.347 12.726C121.496 12.6327 121.659 12.5673 121.837 12.53C122.014 12.4927 122.191 12.474 122.369 12.474C122.639 12.474 122.887 12.4973 123.111 12.544C123.344 12.5907 123.549 12.67 123.727 12.782C123.904 12.894 124.044 13.048 124.147 13.244C124.259 13.44 124.324 13.6873 124.343 13.986H126.471C126.471 13.4073 126.359 12.9173 126.135 12.516C125.92 12.1053 125.626 11.7693 125.253 11.508C124.879 11.2467 124.45 11.06 123.965 10.948C123.489 10.8267 122.989 10.766 122.467 10.766C122.019 10.766 121.571 10.8267 121.123 10.948C120.675 11.0693 120.273 11.256 119.919 11.508C119.564 11.76 119.275 12.0773 119.051 12.46C118.836 12.8333 118.729 13.2767 118.729 13.79C118.729 14.2473 118.813 14.6393 118.981 14.966C119.158 15.2833 119.387 15.5493 119.667 15.764C119.947 15.9787 120.264 16.156 120.619 16.296C120.973 16.4267 121.337 16.5387 121.711 16.632C122.075 16.7347 122.434 16.828 122.789 16.912C123.143 16.996 123.461 17.094 123.741 17.206C124.021 17.318 124.245 17.458 124.413 17.626C124.59 17.794 124.679 18.0133 124.679 18.284C124.679 18.536 124.613 18.746 124.483 18.914C124.352 19.0727 124.189 19.1987 123.993 19.292C123.797 19.3853 123.587 19.4507 123.363 19.488C123.139 19.516 122.929 19.53 122.733 19.53C122.443 19.53 122.163 19.4973 121.893 19.432C121.622 19.3573 121.384 19.25 121.179 19.11C120.983 18.9607 120.824 18.7693 120.703 18.536C120.581 18.3027 120.521 18.018 120.521 17.682Z" fill="#34C759"/>
<path d="M139.734 21L142.422 11.004H140.266L138.628 17.892H138.6L136.892 11.004H134.834L133.098 17.808H133.07L131.488 11.004H129.29L131.936 21H134.162L135.828 14.196H135.856L137.55 21H139.734Z" fill="#34C759"/>
<path d="M145.535 11.004V21H147.733V11.004H145.535Z" fill="#34C759"/>
<path d="M153.976 12.852V21H156.174V12.852H159.17V11.004H150.98V12.852H153.976Z" fill="#34C759"/>
<path d="M169.087 14.364H171.215C171.149 13.7853 170.991 13.272 170.739 12.824C170.487 12.376 170.165 12.0027 169.773 11.704C169.39 11.396 168.951 11.1627 168.457 11.004C167.971 10.8453 167.453 10.766 166.903 10.766C166.137 10.766 165.447 10.9013 164.831 11.172C164.224 11.4427 163.711 11.816 163.291 12.292C162.871 12.768 162.549 13.328 162.325 13.972C162.101 14.6067 161.989 15.2973 161.989 16.044C161.989 16.772 162.101 17.4533 162.325 18.088C162.549 18.7133 162.871 19.2593 163.291 19.726C163.711 20.1927 164.224 20.5613 164.831 20.832C165.447 21.0933 166.137 21.224 166.903 21.224C167.519 21.224 168.083 21.1307 168.597 20.944C169.11 20.7573 169.558 20.4867 169.941 20.132C170.323 19.7773 170.631 19.348 170.865 18.844C171.098 18.34 171.243 17.7753 171.299 17.15H169.171C169.087 17.822 168.853 18.3633 168.471 18.774C168.097 19.1847 167.575 19.39 166.903 19.39C166.408 19.39 165.988 19.2967 165.643 19.11C165.297 18.914 165.017 18.6573 164.803 18.34C164.588 18.0227 164.429 17.668 164.327 17.276C164.233 16.8747 164.187 16.464 164.187 16.044C164.187 15.6053 164.233 15.1807 164.327 14.77C164.429 14.3593 164.588 13.9953 164.803 13.678C165.017 13.3513 165.297 13.0947 165.643 12.908C165.988 12.712 166.408 12.614 166.903 12.614C167.173 12.614 167.43 12.6607 167.673 12.754C167.925 12.838 168.149 12.9593 168.345 13.118C168.541 13.2767 168.704 13.4633 168.835 13.678C168.965 13.8833 169.049 14.112 169.087 14.364Z" fill="#34C759"/>
<path d="M174.9 11.004V21H177.098V16.688H181.144V21H183.342V11.004H181.144V14.84H177.098V11.004H174.9Z" fill="#34C759"/>
<path d="M187.377 11.004V21H194.965V19.152H189.575V16.702H194.419V14.994H189.575V12.852H194.853V11.004H187.377Z" fill="#34C759"/>
<path d="M200.753 15.526V12.712H203.161C203.665 12.712 204.043 12.824 204.295 13.048C204.547 13.2627 204.673 13.6127 204.673 14.098C204.673 14.602 204.547 14.966 204.295 15.19C204.043 15.414 203.665 15.526 203.161 15.526H200.753ZM198.555 11.004V21H200.753V17.094H202.951C203.501 17.094 203.898 17.2153 204.141 17.458C204.383 17.7007 204.542 18.0833 204.617 18.606C204.673 19.0073 204.715 19.4273 204.743 19.866C204.771 20.3047 204.845 20.6827 204.967 21H207.165C207.062 20.86 206.983 20.692 206.927 20.496C206.88 20.2907 206.843 20.076 206.815 19.852C206.796 19.628 206.782 19.4087 206.773 19.194C206.763 18.9793 206.754 18.7927 206.745 18.634C206.726 18.382 206.689 18.13 206.633 17.878C206.586 17.626 206.507 17.3973 206.395 17.192C206.283 16.9773 206.138 16.7953 205.961 16.646C205.783 16.4873 205.559 16.3707 205.289 16.296V16.268C205.849 16.044 206.25 15.7173 206.493 15.288C206.745 14.8587 206.871 14.35 206.871 13.762C206.871 13.3793 206.801 13.0247 206.661 12.698C206.53 12.362 206.334 12.068 206.073 11.816C205.821 11.564 205.513 11.368 205.149 11.228C204.794 11.0787 204.393 11.004 203.945 11.004H198.555Z" fill="#34C759"/>
<path d="M34 11.004V21H36.198V16.688H40.244V21H42.442V11.004H40.244V14.84H36.198V11.004H34Z" stroke="black" stroke-width="2" mask="url(#path-1-outside-1_0_1)"/>
<path d="M46.477 11.004V21H54.065V19.152H48.675V16.702H53.519V14.994H48.675V12.852H53.953V11.004H46.477Z" stroke="black" stroke-width="2" mask="url(#path-1-outside-1_0_1)"/>
<path d="M60.1751 17.136L61.4771 13.468H61.5051L62.7651 17.136H60.1751ZM60.3851 11.004L56.6051 21H58.8171L59.6011 18.774H63.3391L64.0951 21H66.3771L62.6391 11.004H60.3851Z" stroke="black" stroke-width="2" mask="url(#path-1-outside-1_0_1)"/>
<path d="M69.3391 11.004V21H76.4091V19.152H71.5371V11.004H69.3391Z" stroke="black" stroke-width="2" mask="url(#path-1-outside-1_0_1)"/>
<path d="M80.6647 12.852V21H82.8627V12.852H85.8587V11.004H77.6687V12.852H80.6647Z" stroke="black" stroke-width="2" mask="url(#path-1-outside-1_0_1)"/>
<path d="M89.1113 11.004V21H91.3093V16.688H95.3553V21H97.5533V11.004H95.3553V14.84H91.3093V11.004H89.1113Z" stroke="black" stroke-width="2" mask="url(#path-1-outside-1_0_1)"/>
<path d="M104.178 17.108V21H106.376V17.164L110.086 11.004H107.636L105.312 14.952L102.974 11.004H100.51L104.178 17.108Z" stroke="black" stroke-width="2" mask="url(#path-1-outside-1_0_1)"/>
<path d="M120.521 17.682H118.393C118.383 18.298 118.495 18.83 118.729 19.278C118.962 19.726 119.275 20.0947 119.667 20.384C120.068 20.6733 120.525 20.8833 121.039 21.014C121.561 21.154 122.098 21.224 122.649 21.224C123.33 21.224 123.927 21.1447 124.441 20.986C124.963 20.8273 125.397 20.608 125.743 20.328C126.097 20.0387 126.363 19.698 126.541 19.306C126.718 18.914 126.807 18.4893 126.807 18.032C126.807 17.472 126.685 17.0147 126.443 16.66C126.209 16.296 125.929 16.0067 125.603 15.792C125.276 15.5773 124.945 15.4233 124.609 15.33C124.282 15.2273 124.025 15.1573 123.839 15.12C123.213 14.9613 122.705 14.8307 122.313 14.728C121.93 14.6253 121.627 14.5227 121.403 14.42C121.188 14.3173 121.043 14.2053 120.969 14.084C120.894 13.9627 120.857 13.804 120.857 13.608C120.857 13.3933 120.903 13.216 120.997 13.076C121.09 12.936 121.207 12.8193 121.347 12.726C121.496 12.6327 121.659 12.5673 121.837 12.53C122.014 12.4927 122.191 12.474 122.369 12.474C122.639 12.474 122.887 12.4973 123.111 12.544C123.344 12.5907 123.549 12.67 123.727 12.782C123.904 12.894 124.044 13.048 124.147 13.244C124.259 13.44 124.324 13.6873 124.343 13.986H126.471C126.471 13.4073 126.359 12.9173 126.135 12.516C125.92 12.1053 125.626 11.7693 125.253 11.508C124.879 11.2467 124.45 11.06 123.965 10.948C123.489 10.8267 122.989 10.766 122.467 10.766C122.019 10.766 121.571 10.8267 121.123 10.948C120.675 11.0693 120.273 11.256 119.919 11.508C119.564 11.76 119.275 12.0773 119.051 12.46C118.836 12.8333 118.729 13.2767 118.729 13.79C118.729 14.2473 118.813 14.6393 118.981 14.966C119.158 15.2833 119.387 15.5493 119.667 15.764C119.947 15.9787 120.264 16.156 120.619 16.296C120.973 16.4267 121.337 16.5387 121.711 16.632C122.075 16.7347 122.434 16.828 122.789 16.912C123.143 16.996 123.461 17.094 123.741 17.206C124.021 17.318 124.245 17.458 124.413 17.626C124.59 17.794 124.679 18.0133 124.679 18.284C124.679 18.536 124.613 18.746 124.483 18.914C124.352 19.0727 124.189 19.1987 123.993 19.292C123.797 19.3853 123.587 19.4507 123.363 19.488C123.139 19.516 122.929 19.53 122.733 19.53C122.443 19.53 122.163 19.4973 121.893 19.432C121.622 19.3573 121.384 19.25 121.179 19.11C120.983 18.9607 120.824 18.7693 120.703 18.536C120.581 18.3027 120.521 18.018 120.521 17.682Z" stroke="black" stroke-width="2" mask="url(#path-1-outside-1_0_1)"/>
<path d="M139.734 21L142.422 11.004H140.266L138.628 17.892H138.6L136.892 11.004H134.834L133.098 17.808H133.07L131.488 11.004H129.29L131.936 21H134.162L135.828 14.196H135.856L137.55 21H139.734Z" stroke="black" stroke-width="2" mask="url(#path-1-outside-1_0_1)"/>
<path d="M145.535 11.004V21H147.733V11.004H145.535Z" stroke="black" stroke-width="2" mask="url(#path-1-outside-1_0_1)"/>
<path d="M153.976 12.852V21H156.174V12.852H159.17V11.004H150.98V12.852H153.976Z" stroke="black" stroke-width="2" mask="url(#path-1-outside-1_0_1)"/>
<path d="M169.087 14.364H171.215C171.149 13.7853 170.991 13.272 170.739 12.824C170.487 12.376 170.165 12.0027 169.773 11.704C169.39 11.396 168.951 11.1627 168.457 11.004C167.971 10.8453 167.453 10.766 166.903 10.766C166.137 10.766 165.447 10.9013 164.831 11.172C164.224 11.4427 163.711 11.816 163.291 12.292C162.871 12.768 162.549 13.328 162.325 13.972C162.101 14.6067 161.989 15.2973 161.989 16.044C161.989 16.772 162.101 17.4533 162.325 18.088C162.549 18.7133 162.871 19.2593 163.291 19.726C163.711 20.1927 164.224 20.5613 164.831 20.832C165.447 21.0933 166.137 21.224 166.903 21.224C167.519 21.224 168.083 21.1307 168.597 20.944C169.11 20.7573 169.558 20.4867 169.941 20.132C170.323 19.7773 170.631 19.348 170.865 18.844C171.098 18.34 171.243 17.7753 171.299 17.15H169.171C169.087 17.822 168.853 18.3633 168.471 18.774C168.097 19.1847 167.575 19.39 166.903 19.39C166.408 19.39 165.988 19.2967 165.643 19.11C165.297 18.914 165.017 18.6573 164.803 18.34C164.588 18.0227 164.429 17.668 164.327 17.276C164.233 16.8747 164.187 16.464 164.187 16.044C164.187 15.6053 164.233 15.1807 164.327 14.77C164.429 14.3593 164.588 13.9953 164.803 13.678C165.017 13.3513 165.297 13.0947 165.643 12.908C165.988 12.712 166.408 12.614 166.903 12.614C167.173 12.614 167.43 12.6607 167.673 12.754C167.925 12.838 168.149 12.9593 168.345 13.118C168.541 13.2767 168.704 13.4633 168.835 13.678C168.965 13.8833 169.049 14.112 169.087 14.364Z" stroke="black" stroke-width="2" mask="url(#path-1-outside-1_0_1)"/>
<path d="M174.9 11.004V21H177.098V16.688H181.144V21H183.342V11.004H181.144V14.84H177.098V11.004H174.9Z" stroke="black" stroke-width="2" mask="url(#path-1-outside-1_0_1)"/>
<path d="M187.377 11.004V21H194.965V19.152H189.575V16.702H194.419V14.994H189.575V12.852H194.853V11.004H187.377Z" stroke="black" stroke-width="2" mask="url(#path-1-outside-1_0_1)"/>
<path d="M200.753 15.526V12.712H203.161C203.665 12.712 204.043 12.824 204.295 13.048C204.547 13.2627 204.673 13.6127 204.673 14.098C204.673 14.602 204.547 14.966 204.295 15.19C204.043 15.414 203.665 15.526 203.161 15.526H200.753ZM198.555 11.004V21H200.753V17.094H202.951C203.501 17.094 203.898 17.2153 204.141 17.458C204.383 17.7007 204.542 18.0833 204.617 18.606C204.673 19.0073 204.715 19.4273 204.743 19.866C204.771 20.3047 204.845 20.6827 204.967 21H207.165C207.062 20.86 206.983 20.692 206.927 20.496C206.88 20.2907 206.843 20.076 206.815 19.852C206.796 19.628 206.782 19.4087 206.773 19.194C206.763 18.9793 206.754 18.7927 206.745 18.634C206.726 18.382 206.689 18.13 206.633 17.878C206.586 17.626 206.507 17.3973 206.395 17.192C206.283 16.9773 206.138 16.7953 205.961 16.646C205.783 16.4873 205.559 16.3707 205.289 16.296V16.268C205.849 16.044 206.25 15.7173 206.493 15.288C206.745 14.8587 206.871 14.35 206.871 13.762C206.871 13.3793 206.801 13.0247 206.661 12.698C206.53 12.362 206.334 12.068 206.073 11.816C205.821 11.564 205.513 11.368 205.149 11.228C204.794 11.0787 204.393 11.004 203.945 11.004H198.555Z" stroke="black" stroke-width="2" mask="url(#path-1-outside-1_0_1)"/>
<g clip-path="url(#clip0_0_1)">
<path d="M17.0984 8.16492H7.90162C3.53781 8.16492 0 11.7087 0 16.0817C0 20.4547 3.53781 24 7.90162 24H17.0984C21.4622 24 25 20.4547 25 16.0817C25 11.7087 21.4622 8.16492 17.0984 8.16492ZM16.9261 23.0921C13.0637 23.0921 9.93201 19.9537 9.93201 16.0832C9.93201 12.2127 13.0637 9.07436 16.9261 9.07436C20.7885 9.07436 23.9202 12.2127 23.9202 16.0832C23.9202 19.9537 20.7885 23.0921 16.9261 23.0921Z" fill="#34C759"/>
<path d="M16.0047 4.68437C16.0047 5.68167 16.2632 6.61732 16.7169 7.42811C14.5112 7.04738 12.833 5.1206 12.833 2.80075C12.833 2.50942 12.8592 2.22426 12.9115 1.9468C13.3422 1.81578 13.8005 1.74487 14.2743 1.74487C15.0895 1.74487 15.8571 1.95451 16.5246 2.32137C16.1909 3.03967 16.0047 3.83967 16.0047 4.68437Z" fill="#34C759"/>
<path d="M22.2067 2.80077C22.2067 4.92023 20.8069 6.71137 18.8827 7.29557C18.552 7.39576 18.2074 7.46204 17.849 7.48516H17.8475C17.2676 6.70366 16.9246 5.7341 16.9246 4.68439C16.9246 4.03391 17.0568 3.41426 17.2953 2.8501C17.9674 1.26243 19.4856 0.123314 21.2838 0C21.8636 0.781503 22.2067 1.75106 22.2067 2.80077Z" fill="#34C759"/>
</g>
<defs>
<clipPath id="clip0_0_1">
<rect width="25" height="24" fill="white"/>
</clipPath>
</defs>
</svg>
